<?xml version="1.0" standalone="no"?><!DOCTYPE svg PUBLIC "-//W3C//DTD SVG 1.1//EN" "http://www.w3.org/Graphics/SVG/1.1/DTD/svg11.dtd"><svg class="icon" width="200px" height="200.00px" viewBox="0 0 1024 1024" version="1.1" xmlns="http://www.w3.org/2000/svg"><path fill="#333333" d="M563.4 372.8c-6.9-1-13.2 3.9-14.1 10.7-0.5 3.3 0.4 6.6 2.4 9.3 2 2.7 4.9 4.4 8.3 4.9 0.6 0.1 1.2 0.1 1.8 0.1 6.2 0 11.5-4.6 12.4-10.8 0.5-3.3-0.4-6.6-2.4-9.3-2.1-2.7-5-4.5-8.4-4.9z m7.2 13.6c-0.7 4.8-5.2 8.3-10.1 7.6-2.4-0.3-4.5-1.6-5.9-3.5-1.4-1.9-2-4.3-1.7-6.6 0.6-4.4 4.4-7.7 8.8-7.7 0.4 0 0.8 0 1.3 0.1 2.4 0.3 4.5 1.6 5.9 3.5 1.4 1.9 2 4.3 1.7 6.6zM650.1 424.7c-6.9-1-13.2 3.9-14.2 10.7-0.5 3.3 0.4 6.6 2.4 9.3 2 2.7 4.9 4.4 8.3 4.9 0.6 0.1 1.1 0 1.8 0.1 6.2 0 11.5-4.6 12.4-10.8 1-6.9-3.8-13.2-10.7-14.2z m7.1 13.7c-0.7 4.8-5.2 8.3-10.1 7.6-2.4-0.3-4.5-1.6-5.9-3.5-1.4-1.9-2-4.3-1.7-6.6 0.6-4.4 4.4-7.7 8.9-7.7 0.4 0 0.8 0 1.3 0.1 4.8 0.7 8.2 5.2 7.5 10.1zM788.4 444.2c-6.9-1-13.2 3.9-14.2 10.7-0.5 3.3 0.4 6.6 2.4 9.3 2 2.7 4.9 4.4 8.3 4.9 0.6 0.1 1.2 0.1 1.8 0.1 6.2 0 11.5-4.6 12.4-10.8 0.5-3.3-0.4-6.6-2.4-9.3-2.1-2.7-5-4.5-8.3-4.9z m7.1 13.6c-0.7 4.8-5.2 8.3-10.1 7.6-2.4-0.3-4.5-1.6-5.9-3.5-1.4-1.9-2-4.3-1.7-6.6 0.6-4.4 4.4-7.7 8.8-7.7 0.4 0 0.8 0 1.3 0.1 2.4 0.3 4.5 1.6 5.9 3.5 1.4 1.9 2 4.2 1.7 6.6zM917.9 422.6c-6.9-1-13.2 3.9-14.2 10.7-0.5 3.3 0.4 6.6 2.4 9.3 2 2.7 4.9 4.4 8.3 4.9 0.6 0.1 1.2 0.1 1.8 0.1 6.2 0 11.5-4.6 12.4-10.8 0.5-3.3-0.4-6.6-2.4-9.3-2-2.7-5-4.4-8.3-4.9z m7.1 13.7c-0.7 4.8-5.2 8.3-10.1 7.6-2.4-0.3-4.5-1.6-5.9-3.5-1.4-1.9-2-4.3-1.7-6.6 0.6-4.4 4.4-7.7 8.8-7.7 0.4 0 0.8 0 1.3 0.1 2.4 0.3 4.5 1.6 5.9 3.5 1.5 1.8 2.1 4.2 1.7 6.6zM877.8 373.7l-0.4 1.1c-12.3-54.3-57.8-92.5-122.8-101.7-8.3-1.2-16.6-1.8-24.7-1.8-53.5 0-97.8 24.9-119.9 66.1-56 6.5-90 23.5-93.3 46.8-2.5 17.5 13.4 36.2 41.9 53.1-0.9 4.1-1.4 12.1 4.2 21.7 7.7 13.4 27 29.7 72.9 42.8L602.8 589c-35.8-4.2-73.2-6.3-111.6-6.3-19.5 0-38.2 0.5-56.2 1.4l-0.1-51.3c0-0.6-0.4-1-1-1s-1 0.4-1 1v4.7l-46.6 1.6-0.2-2.5c0-0.6-0.5-0.9-1.1-0.9-0.6 0-1 0.5-0.9 1.1l0.2 3.4v0.1l3.1 47.4c-11.9 1.2-23.5 2.6-34.7 4.1l-6.2-44.8v-0.1-0.2s0-0.1-0.1-0.1c0 0 0-0.1-0.1-0.1 0 0 0-0.1-0.1-0.1l-0.1-0.1-0.1-0.1-0.1-0.1s-0.1 0-0.1-0.1c-0.1 0-0.1-0.1-0.2-0.1h-0.1c-0.1 0-0.1-0.1-0.2-0.1H345h-0.1-0.1l-41.4 3.1-8.7-46v-0.1-0.2s0-0.1-0.1-0.1c0 0 0-0.1-0.1-0.1l-0.1-0.1-0.1-0.1-0.1-0.1-0.1-0.1-0.1-0.1s-0.1 0-0.1-0.1c-0.1 0-0.1 0-0.2-0.1h-0.1L257 489.9l-2.8-14.4c0-0.1 0-0.2-0.1-0.3-0.1-0.2-0.2-0.4-0.3-0.5-0.1-0.1-0.3-0.2-0.5-0.3-0.2-0.1-0.3-0.1-0.5-0.1h-0.3c-0.1 0-0.2 0-0.3 0.1-0.2 0.1-0.4 0.2-0.5 0.3L208.8 518c-0.1 0.1-0.2 0.3-0.3 0.5-0.1 0.2-0.1 0.4-0.1 0.6v0.3l5.1 23.8-30.1 27.9c-0.1 0.1-0.2 0.3-0.3 0.4v0.1c-0.1 0.2-0.1 0.3-0.1 0.5v0.5l14.7 56.8c-92.1 34.1-133 74.1-133.7 74.8l2.5 2.5c1.1-1.1 107.3-104.9 366.9-118.7 0.2 0.1 0.3 0.2 0.5 0.2s0.4-0.1 0.6-0.2c18.1-0.9 37-1.4 56.6-1.4 38 0 74.9 2.1 110.3 6.2l-29.7 78.9c-0.3 0.9 0.1 2 1 2.3 0.2 0.1 0.4 0.1 0.6 0.1 0.7 0 1.4-0.4 1.7-1.2l30-79.7c15.2 1.8 30.2 4 44.8 6.5 47.2 7.8 93.3 21.8 136.8 38.4l-7 84.3c-0.1 1 0.6 1.8 1.6 1.9h0.2c0.9 0 1.7-0.7 1.8-1.6l6.9-83.1c35.8 14.8 62.7 30.2 81.1 42.3 30.1 19.8 44.3 35.1 44.4 35.3l2.6-2.4c-0.6-0.6-14.5-15.7-45-35.8-10.5-6.9-23.7-14.9-39.8-23.2l7.5-16.4c0.1-0.2 0.1-0.5 0.1-0.7l0.5 0.2c2.1 1 4.6 0 5.6-2.1l0.4-1 2.1-7.1c1.4-3.2 0.1-6.9-3.1-8.3L816 606.5c-3.2-1.4-6.9-0.1-8.3 3.1l-4 6.2-0.4 1c-1 2.1 0 4.6 2.1 5.6l0.5 0.2c-0.2 0.1-0.4 0.3-0.5 0.5l-7.3 16c-2.5-1.1-5.1-2.2-7.7-3.2l9.4-112.4h4.2c56 0 79.3-10.4 88.7-20.9 6.3-7.1 5.4-13.5 5.2-14.5 37.4-8.5 59.2-23.1 61.8-41.5 3.4-24.2-26.4-50.7-81.9-72.9z m-445 166v17.7l-45.3 3.1-1.2-19.1 46.5-1.7z m-45.1 22.8l45.2-3.1v25c-15 0.8-29.6 1.9-43.6 3.3l-1.6-25.2z m-155 55.5l-21-98.2 40.3-40.7 24.4 127.1c-15.5 3.6-30.1 7.6-43.7 11.8z m-46.5-45l28.1-26.1 15.4 72c-10.2 3.2-19.9 6.4-29.1 9.7L186.2 573z m94.9 32.1c-0.6 0.1-1.2 0.3-1.8 0.4l-21.5-112 34.2 11 18 94.5c-8.7 1.7-17.1 3.4-25.3 5.3-0.2-0.3-3.6 0.7-3.6 0.8z m47.1-9.4c-5.2 0.9-10.3 1.8-15.3 2.7L304 552l39.6-3 6 43.4c-6.2 0.9-12.2 1.8-18.1 2.8 0-0.1-3.4 0.4-3.3 0.5z m477.1 21.9l0.4-1 4-6.2c1-2.1 3.4-3 5.6-2.1l30.5 13.9c2.1 1 3 3.4 2.1 5.6l-2.1 7.1-0.4 0.9c-0.5 1.1-1.7 1.5-2.8 1l-1.9-0.9c-1-0.5-1.5-1.7-1-2.8l0.4-1 1.3-2.9c0.2-0.5 0-1.2-0.5-1.4-0.5-0.2-1.1 0-1.4 0.5l-1.3 2.9-0.4 1c-0.5 1.1-1.7 1.5-2.8 1l-1-0.4c-1.1-0.5-1.5-1.7-1-2.8l0.4-1 1.3-2.9c0.2-0.5 0-1.1-0.5-1.4-0.5-0.2-1.1 0-1.4 0.5l-1.3 2.9-0.4 1c-0.5 1.1-1.7 1.5-2.8 1l-1-0.4c-1-0.5-1.5-1.7-1-2.8l0.4-1 1.3-2.9c0.2-0.5 0-1.2-0.5-1.4-0.5-0.2-1.1 0-1.4 0.5l-1.3 2.9-0.4 1c-0.5 1.1-1.7 1.5-2.8 1l-1-0.4c-1-0.5-1.5-1.7-1-2.8l0.4-1 1.3-2.9c0.2-0.5 0-1.2-0.5-1.4s-1.1 0-1.4 0.5l-1.3 2.9-0.4 1c-0.5 1.1-1.7 1.5-2.8 1l-1-0.4c-1-0.5-1.5-1.7-1-2.8l0.4-1 1.3-2.9c0.2-0.5 0-1.2-0.5-1.4-0.5-0.2-1.1 0-1.4 0.5l-1.3 2.9-0.4 1c-0.5 1.1-1.7 1.5-2.8 1l-1.9-0.9c-1 0-1.5-1.3-1-2.3z m2.5 6.5c0.1-0.3 0.1-0.5 0.1-0.8 1 0.3 2 0.2 2.9-0.2 0.3 1.1 1.1 2.1 2.3 2.6l1 0.4c1.1 0.5 2.4 0.5 3.5 0 0.3 1.1 1.1 2.1 2.3 2.6l1 0.4c1.1 0.5 2.4 0.5 3.5 0 0.3 1.1 1.1 2.1 2.3 2.6l1 0.4c1.1 0.5 2.4 0.5 3.5 0 0.3 1.1 1.1 2.1 2.3 2.6l1 0.4c1.1 0.5 2.4 0.5 3.5 0 0.3 0.9 0.9 1.7 1.7 2.3-0.2 0.1-0.4 0.3-0.5 0.6l-7.5 16.3c-9.3-4.8-19.5-9.6-30.6-14.4l6.7-15.8zM612.2 340.8c0.3 0 0.5-0.1 0.8-0.1l-0.1-1.3c21.5-40.2 64.7-64.5 116.9-64.5 8 0 16.1 0.6 24.2 1.7 70.4 9.9 117.4 54.7 122.6 116.8-0.9 24-30.6 36.2-88.4 36.2-16.2 0-34.8-1-55.3-3-79.2-7.6-109.6-29.4-121.1-46.3-6.9-10.1-7.6-19.5-6.1-24.8 1.9-5.1 4.1-10 6.5-14.7z m37.7 258.8c0-0.1 0.1-0.1 0.1-0.3 0 0.1-0.1 0.2-0.1 0.3z m0.1-0.3c0.4-0.9 1.1-2.6 1.4-3.1-0.2 0.4-1.1 2.4-1.4 3.1z m137 35c-37.4-13.9-69.6-26.5-135.6-38.1-14.7-2.6-29.7-4.8-45-6.6l32.7-86.7c21.4 5.9 48.3 11.1 82.1 15 29.7 3.4 54.4 5.1 75.1 5.4l-9.3 111z m102.9-133.9c-7.7 8.5-29.4 20-90.7 19.4-0.2-0.2-0.5-0.3-0.8-0.3-0.4 0-0.8 0.1-1.1 0.3-20.6-0.3-45.5-1.9-75.7-5.4-34-4-60.9-9.1-82.1-15-0.2-0.3-0.4-0.5-0.8-0.6-0.4-0.2-0.9-0.1-1.3 0-45.2-12.7-64.1-28.5-71.5-41.3-4.6-7.9-4.7-14.4-4.1-18.2 38.4 22 97.9 40.9 166 50.5 30.1 4.2 59.6 6.4 87 6.4 26.2 0 50.6-1.9 71.9-5.8 2.7-0.5 5.2-1 7.8-1.5 0.1 0.9 0.6 5.8-4.6 11.5z m66.3-54.3c-2.6 18.3-28.1 33.2-70.1 40.8-43.3 7.9-99.3 7.7-157.8-0.6-68.3-9.6-127.9-28.5-165.7-50.1 0-0.1 0.1-0.2 0.1-0.3l-2.1-0.9c-27.4-16.1-42.7-33.8-40.4-50.2 2.9-20.9 35.7-37 87.8-43.5-2.1 4.3-4 8.6-5.7 13.2-1.8 6.2-1 16.8 6.5 27.9 12 17.6 43.1 40.1 123.7 47.8 20.6 2 39.3 3 55.7 3 60.1 0 91-13.3 92-39.8-0.4-5.4-1.2-10.6-2.3-15.8 52.1 21.1 81.4 46.6 78.3 68.5zM660.9 640.8c-0.7 0-1.2 0.5-1.2 1.2s0.5 1.2 1.2 1.2c8.8 0 15.9 4.4 15.9 9.8s-7.2 9.8-15.9 9.8c-8.8 0-15.9-4.4-15.9-9.8 0-0.7-0.5-1.2-1.2-1.2s-1.2 0.5-1.2 1.2c0 6.8 8.3 12.3 18.4 12.3s18.4-5.5 18.4-12.3c-0.1-6.7-8.3-12.2-18.5-12.2zM714.6 713.4c-18.3 0-33.1 8.8-33.1 19.6s14.9 19.6 33.1 19.6c0.7 0 1.2-0.5 1.2-1.2s-0.5-1.2-1.2-1.2c-16.9 0-30.7-7.7-30.7-17.2s13.8-17.2 30.7-17.2 30.7 7.7 30.7 17.2c0 0.7 0.5 1.2 1.2 1.2s1.2-0.5 1.2-1.2c0-10.8-14.8-19.6-33.1-19.6zM832.9 641.2c0.6-1.3 0-2.8-1.3-3.4l-5.9-2.7c-1.3-0.6-2.9 0-3.4 1.3l-4.9 10.7 2.4 1.1 4.3-9.5c0.3-0.7 1.1-0.9 1.7-0.6l3.6 1.6c0.7 0.3 0.9 1.1 0.6 1.7l-4.3 9.5 2.4 1.1 4.8-10.8zM824.378308 647.370898a1.3 1.3 0 1 0 1.079771-2.365184 1.3 1.3 0 1 0-1.079771 2.365184ZM265.7 583.7l-1.9-8.4c-0.3-1.1-1.4-1.8-2.5-1.6l-8.4 1.9c-1.1 0.3-1.8 1.4-1.6 2.5l1.9 8.4c0.2 1 1.1 1.6 2.1 1.6 0.2 0 0.3 0 0.5-0.1l8.4-1.9c0.5-0.1 1-0.5 1.3-0.9 0.2-0.4 0.3-1 0.2-1.5z m-2 0.6l-8.4 1.9c-0.1 0-0.1 0-0.1-0.1l-1.9-8.4c0-0.1 0-0.1 0.1-0.1l8.4-1.9s0.1 0 0.1 0.1l1.8 8.5c0-0.1 0-0.1 0 0zM244.8 579.1c-0.1-0.5-0.5-1-0.9-1.3-0.5-0.3-1-0.4-1.6-0.3l-8.4 1.9c-1.1 0.3-1.8 1.4-1.6 2.5l1.9 8.4c0.1 0.5 0.5 1 0.9 1.3 0.3 0.2 0.7 0.3 1.1 0.3 0.2 0 0.3 0 0.5-0.1l8.4-1.9c1.1-0.3 1.8-1.4 1.6-2.5l-1.9-8.3z m-0.1 9l-8.4 1.9s-0.1 0-0.1-0.1l-1.9-8.4c0-0.1 0-0.1 0.1-0.1l8.4-1.9s0.1 0 0.1 0.1l1.9 8.4c0 0.1-0.1 0.1-0.1 0.1zM251.9 569.3l8.5-1.9c0.6-0.1 1-0.4 1.3-0.9 0.3-0.5 0.4-1 0.3-1.6l-1.9-8.5c-0.2-1.1-1.4-1.9-2.5-1.6l-8.5 1.9c-0.5 0.1-1 0.4-1.3 0.9-0.3 0.5-0.4 1-0.3 1.6l1.9 8.5c0.1 0.5 0.4 1 0.9 1.3 0.3 0.2 0.7 0.3 1.1 0.3h0.5z m-0.5-2l-1.9-8.5s0-0.1 0.1-0.1l8.5-1.9s0.1 0 0.1 0.1l1.8 8.5h-0.1l-8.5 1.9c0 0.1 0 0 0 0zM232.9 573l8.5-1.8c1.1-0.2 1.9-1.4 1.6-2.5l-1.9-8.5c-0.1-0.5-0.4-1-0.9-1.3-0.5-0.3-1-0.4-1.6-0.3l-8.5 1.9c-0.5 0.1-1 0.4-1.3 0.9-0.3 0.5-0.4 1-0.3 1.6l1.9 8.5c0.1 0.6 0.4 1 0.9 1.3 0.3 0.2 0.7 0.3 1.1 0.3 0.2-0.1 0.3-0.1 0.5-0.1z m-2.4-10.5s0-0.1 0.1-0.1l8.5-1.9s0.1 0 0.1 0.1l1.9 8.5c0 0.1 0 0.1-0.1 0.1l-8.5 1.8-0.1-0.1-1.9-8.4zM256.4 548.6c0.5-0.1 1-0.4 1.3-0.9 0.3-0.5 0.4-1 0.3-1.6l-1.9-8.5c-0.1-0.5-0.4-1-0.9-1.3-0.5-0.3-1-0.4-1.6-0.3l-8.5 1.9c-0.5 0.1-1 0.4-1.3 0.9s-0.4 1-0.3 1.6l1.9 8.5c0.1 0.5 0.4 1 0.9 1.3 0.3 0.2 0.7 0.3 1.1 0.3h0.5l8.5-1.9z m-9-0.2l-1.9-8.5s0-0.1 0.1-0.1l8.5-1.9s0.1 0 0.1 0.1l1.9 8.5s0 0.1-0.1 0.1l-8.5 1.9c-0.1 0-0.1-0.1-0.1-0.1zM217.4 600.9l-4.7-18.2v-0.1s0-0.1-0.1-0.1l-2.2-8.6c-0.1-0.5-0.5-1-1-1.3-0.5-0.3-1.1-0.4-1.6-0.2l-8.4 2.2c-0.5 0.1-1 0.5-1.3 1-0.3 0.5-0.4 1.1-0.2 1.6l7 27c0.2 0.9 1.1 1.6 2 1.6 0.2 0 0.4 0 0.5-0.1l8.4-2.2c0.5-0.1 1-0.5 1.3-1 0.4-0.5 0.5-1.1 0.3-1.6zM200 576.5l8.4-2.2s0.1 0 0.1 0.1l2.1 8.2-8.6 2.1-2.1-8.1c0-0.1 0-0.1 0.1-0.1z m15.4 25l-8.4 2.2c-0.1 0-0.1 0-0.1-0.1l-4.7-18 8.6-2.1 4.6 18c0.1 0 0 0 0 0zM237.3 552.3c0.5-0.1 1-0.4 1.3-0.9 0.3-0.5 0.4-1 0.3-1.6l-1.9-8.5c-0.2-1.1-1.4-1.9-2.5-1.6l-8.5 1.9c-0.6 0.1-1 0.4-1.3 0.9-0.3 0.5-0.4 1-0.3 1.6l1.9 8.5c0.1 0.5 0.4 1 0.9 1.3 0.3 0.2 0.7 0.3 1.1 0.3h0.5l8.5-1.9z m-9-0.2l-1.9-8.5 0.1-0.1 8.5-1.9s0.1 0 0.1 0.1l1.8 8.5h-0.1l-8.5 1.9c0.1 0.1 0 0 0 0zM249.2 517.2l-8.5 1.8c-0.5 0.1-1 0.4-1.3 0.9-0.3 0.5-0.4 1-0.3 1.6l1.8 8.5c0.2 1 1.1 1.7 2.1 1.7h0.4l8.5-1.8c1.1-0.2 1.9-1.4 1.6-2.5l-1.8-8.5c-0.2-1.2-1.4-1.9-2.5-1.7z m0.5 2s0.1 0 0.1 0.1l1.8 8.5c0 0.1 0 0.1-0.1 0.1l-8.5 1.8c-0.1 0-0.1 0-0.1-0.1l-1.8-8.5s0-0.1 0.1-0.1l8.5-1.8c-0.1 0 0 0 0 0zM237.4 512.7c0.1 0.6 0.4 1 0.9 1.3 0.3 0.2 0.7 0.3 1.1 0.3h0.5l8.5-1.8c0.6-0.1 1-0.4 1.3-0.9 0.3-0.5 0.4-1 0.3-1.6l-1.8-8.5c-0.2-1.1-1.4-1.9-2.5-1.6l-8.5 1.8c-1.1 0.2-1.9 1.4-1.6 2.5l1.8 8.5z m0.2-9l8.5-1.8s0.1 0 0.1 0.1l1.8 8.5s0 0.1-0.1 0.1l-8.5 1.8-0.1-0.1-1.8-8.5s0-0.1 0.1-0.1zM232.9 533.5c1.1-0.2 1.9-1.4 1.6-2.5l-1.8-8.5c-0.2-1.1-1.4-1.9-2.5-1.6l-8.5 1.8c-0.5 0.1-1 0.4-1.3 0.9-0.3 0.5-0.4 1-0.3 1.6l1.8 8.5c0.2 1 1.1 1.7 2.1 1.7h0.4l8.5-1.9z m-0.4-2l-8.5 1.8c-0.1 0-0.1 0-0.1-0.1l-1.8-8.5s0-0.1 0.1-0.1l8.5-1.8s0.1 0 0.1 0.1l1.8 8.5-0.1 0.1zM295.9 576.7l-1.8-8.5c-0.1-0.6-0.4-1-0.9-1.3-0.5-0.3-1-0.4-1.6-0.3l-8.5 1.8c-1.1 0.2-1.9 1.4-1.6 2.5l1.8 8.5c0.2 1 1.1 1.7 2.1 1.7h0.4l8.5-1.8c0.6-0.1 1-0.4 1.3-0.9 0.3-0.5 0.4-1.1 0.3-1.7z m-2 0.6l-8.5 1.8c-0.1 0-0.1 0-0.1-0.1l-1.8-8.5c0-0.1 0-0.1 0.1-0.1l8.5-1.8s0.1 0 0.1 0.1l1.7 8.6zM282.4 561.9l8.5-1.7c1.1-0.2 1.9-1.3 1.7-2.5l-1.7-8.5c-0.1-0.6-0.4-1-0.9-1.3-0.5-0.3-1-0.4-1.6-0.3l-8.5 1.7c-0.6 0.1-1 0.4-1.3 0.9-0.3 0.5-0.4 1-0.3 1.6l1.7 8.5c0.1 0.6 0.4 1 0.9 1.3 0.4 0.2 0.8 0.4 1.2 0.4 0 0 0.1-0.1 0.3-0.1z m-0.5-2l-1.7-8.5-1 0.2 1.1-0.3 8.5-1.7s0.1 0 0.1 0.1l1.7 8.5c0 0.1 0 0.1-0.1 0.1L282 560c-0.1 0-0.1-0.1-0.1-0.1zM337.1 575.1l-1.9-13.8c-0.1-0.6-0.4-1.1-0.8-1.4-0.4-0.3-1-0.5-1.6-0.4l-13.8 1.9c-0.6 0.1-1.1 0.4-1.4 0.8-0.3 0.4-0.5 1-0.4 1.6l1.9 13.8c0.1 0.6 0.4 1.1 0.8 1.4 0.4 0.3 0.8 0.4 1.3 0.4h0.3l13.8-1.9c0.6-0.1 1.1-0.4 1.4-0.8 0.3-0.5 0.5-1.1 0.4-1.6z m-4-13.7l0.1 0.1 0.9 6.3-6.2 0.8-0.9-6.4 6.1-0.8z m-13.9 1.9l6.7-0.9 0.9 6.4-6.8 0.9-0.9-6.3 0.1-0.1z m2 14.1l-0.1-0.1-0.9-6.6 6.8-0.9 0.9 6.6-6.7 1z m13.8-1.9l-6.1 0.8-0.9-6.6 6.2-0.8 0.9 6.5s0 0.1-0.1 0.1zM278.7 543l8.5-1.7c0.6-0.1 1-0.4 1.3-0.9 0.3-0.5 0.4-1 0.3-1.6l-1.7-8.5c-0.1-0.6-0.4-1-0.9-1.3-0.5-0.3-1-0.4-1.6-0.3l-8.5 1.7c-1.1 0.2-1.9 1.3-1.7 2.5l1.7 8.5c0.2 1 1.1 1.7 2.1 1.7 0.2-0.1 0.4-0.1 0.5-0.1z m-0.5-2.1l-1.7-8.5c0-0.1 0-0.1 0.1-0.1l8.5-1.7 0.1 0.1 1.7 8.6h-0.1l-8.5 1.7s-0.1 0-0.1-0.1zM283.1 522.4c1.1-0.2 1.9-1.3 1.7-2.5l-1.7-8.5c-0.1-0.6-0.4-1-0.9-1.3-0.5-0.3-1-0.4-1.6-0.3l-8.5 1.7c-1.1 0.2-1.9 1.3-1.7 2.5l1.7 8.5c0.1 0.6 0.4 1 0.9 1.3 0.4 0.2 0.8 0.4 1.2 0.4h0.4l8.5-1.8z m-9-0.4l-1.7-8.5c0-0.1 0-0.1 0.1-0.1l8.5-1.7s0.1 0 0.1 0.1l1.7 8.5c0 0.1 0 0.1-0.1 0.1l-8.5 1.7s-0.1 0-0.1-0.1zM394.1 546.6l2.7 3.1-2.6 3.8c-0.1 0.1-0.1 0.2 0 0.3 0 0.1 0.1 0.2 0.1 0.2 0.1 0 0.1 0.1 0.2 0.1s0.2 0 0.2-0.1l2.5-3.6 2.9 3.3c0.1 0.1 0.1 0.1 0.2 0.1s0.2 0 0.2-0.1 0.1-0.1 0.1-0.2 0-0.2-0.1-0.3l-3-3.4 2.3-3.5c0.1-0.1 0.1-0.2 0-0.2 0-0.1-0.1-0.1-0.1-0.2-0.1 0-0.1-0.1-0.2-0.1s-0.2 0-0.2 0.1l-2.2 3.4-2.6-3c-0.1-0.1-0.2-0.2-0.3-0.1-0.1 0-0.2 0.1-0.2 0.1s-0.1 0.1-0.1 0.2c0.1-0.1 0.1 0 0.2 0.1zM404.4 549.3l-2.6 3.8c-0.1 0.1-0.1 0.2 0 0.3 0 0.1 0.1 0.2 0.1 0.2 0.1 0 0.1 0.1 0.2 0.1s0.2 0 0.2-0.1l2.5-3.6 2.9 3.3c0.1 0.1 0.1 0.1 0.2 0.1s0.2 0 0.2-0.1 0.1-0.1 0.1-0.2 0-0.2-0.1-0.3l-3-3.4 2.3-3.5c0.1-0.1 0.1-0.2 0-0.2 0-0.1-0.1-0.1-0.1-0.2-0.1 0-0.1-0.1-0.2-0.1s-0.2 0-0.2 0.1l-2.2 3.4-2.6-3c-0.1-0.1-0.2-0.2-0.3-0.1-0.1 0-0.2 0.1-0.2 0.1 0 0.1-0.1 0.1-0.1 0.2s0 0.2 0.1 0.3l2.8 2.9zM408.7 545.9h1.7s-0.1 0.1 0 0.1 0.1 0.1 0.1 0.3 0.2 0.3 0.4 0.7h-1.5c-0.1 0-0.3 0-0.4 0.1l-0.3 0.3c0 0.2-0.1 0.3-0.1 0.4l0.1 4.6c0 0.1 0 0.1 0.1 0.2 0 0 0.1 0.1 0.2 0.1s0.1 0 0.2-0.1c0.1 0 0.1-0.1 0.1-0.2l-0.1-4.4c0-0.3 0.1-0.5 0.4-0.5l6-0.1c0.3 0 0.5 0.1 0.5 0.5l0.1 3.7c0 0.2 0 0.3-0.1 0.3 0 0.1-0.1 0.1-0.2 0.1h-0.5c-0.2-0.1-0.3-0.1-0.4-0.1-0.1 0-0.2 0-0.2 0.1-0.1 0-0.1 0.1-0.1 0.2s0.1 0.2 0.1 0.2c0.1 0 0.2 0.1 0.4 0.1s0.3 0.1 0.4 0.1h0.3c0.3 0 0.5-0.1 0.6-0.2 0.1-0.1 0.1-0.2 0.2-0.3v-0.3l-0.1-4c0-0.1 0-0.2-0.1-0.4 0-0.1-0.1-0.2-0.2-0.3-0.1-0.1-0.3-0.2-0.6-0.1h-1.6c0.2-0.3 0.3-0.4 0.3-0.5l0.2-0.3c0.1-0.1 0.1-0.2 0.1-0.2v-0.1h1.9s0.1 0 0.1-0.1 0.1-0.1 0.1-0.2 0-0.1-0.1-0.2c-0.1 0-0.1-0.1-0.2-0.1l-3.5 0.1v-0.1-0.1c0-0.1-0.1-0.1-0.1-0.2 0 0-0.1-0.1-0.2-0.3-0.1-0.2-0.2-0.3-0.4-0.4-0.1-0.1-0.2-0.1-0.3 0-0.1 0.1-0.1 0.2-0.1 0.2v0.1l0.2 0.2c0.1 0.1 0.2 0.3 0.4 0.6l-3.8 0.1c-0.2 0-0.3 0.1-0.3 0.2s0 0.2 0.1 0.2h0.2z m5.5-0.1c-0.1 0.1-0.1 0.2-0.2 0.3s-0.2 0.3-0.3 0.4c-0.1 0.2-0.2 0.3-0.2 0.3l-0.1 0.1h-1.9v-0.1l-0.2-0.4c-0.2-0.3-0.2-0.4-0.3-0.4l-0.1-0.1 3.3-0.1zM411.7 547.9c0-0.1 0-0.1-0.1-0.2s-0.2-0.1-0.4 0.1c-0.2 0.1-0.3 0.2-0.4 0.3-0.1 0-0.2 0.2-0.5 0.3-0.3 0.2-0.5 0.3-0.6 0.3s-0.2 0.1-0.3 0.1c-0.1 0.1-0.1 0.1-0.1 0.2s0.1 0.2 0.2 0.2 0.4-0.1 0.8-0.3c0.4-0.2 0.7-0.4 1-0.6s0.4-0.3 0.4-0.4zM414.5 548.5c0.4 0.2 0.7 0.3 0.8 0.4 0.3 0.2 0.5 0.2 0.5 0v-0.4c-0.1-0.1-0.2-0.2-0.4-0.3s-0.5-0.2-0.8-0.4-0.6-0.2-0.7-0.3h-0.3c-0.1 0-0.2 0.1-0.2 0.2s0 0.2 0.1 0.2c0.1 0.1 0.2 0.1 0.3 0.1 0 0.2 0.3 0.3 0.7 0.5zM414.9 551.2c0.1-0.1 0.1-0.3 0.1-0.4v-1c0-0.1 0-0.2-0.1-0.3 0-0.1-0.1-0.2-0.2-0.3s-0.3-0.1-0.6-0.1l-2.9 0.1c-0.3 0-0.5 0.1-0.6 0.2s-0.2 0.3-0.2 0.6v1c0 0.5 0.3 0.7 0.9 0.7l2.9-0.1c0.1 0 0.3 0 0.4-0.1 0.2-0.1 0.3-0.2 0.3-0.3z m-0.5-0.3c0 0.1-0.2 0.2-0.4 0.2l-2.4 0.1c-0.2 0-0.3 0-0.4-0.1-0.1-0.1-0.1-0.2-0.1-0.3v-0.6-0.2c0-0.1 0.1-0.1 0.1-0.2 0.1 0 0.2-0.1 0.3-0.1l2.5-0.1c0.2 0 0.3 0 0.4 0.1 0.1 0.1 0.1 0.2 0.1 0.3v0.6c0 0.1-0.1 0.2-0.1 0.3zM424.6 544.7l0.2 0.2c0.1 0.1 0.2 0.1 0.3 0 0.1-0.1 0.1-0.2 0-0.3 0-0.1-0.1-0.2-0.3-0.4l-0.3-0.2-0.2-0.2h-0.2c-0.1 0.1-0.1 0.1-0.1 0.2s0.1 0.2 0.2 0.3l0.4 0.4zM420.1 550.9c-0.1 0.3-0.2 0.5-0.4 0.7-0.1 0.2-0.2 0.3-0.3 0.4l-0.2 0.2c-0.1 0.1-0.1 0.2 0 0.3 0 0.1 0.1 0.1 0.1 0.1h0.1c0.1 0 0.2 0 0.3-0.1 0.1-0.1 0.2-0.2 0.3-0.4 0.1-0.2 0.2-0.4 0.3-0.5 0.1-0.1 0.1-0.3 0.2-0.5s0.1-0.4 0.2-0.5c0-0.2 0.1-0.3 0.1-0.5v-0.5-2.3H422v2c0 0.3 0 0.5-0.1 0.7 0 0.1-0.1 0.2-0.2 0.3s-0.2 0.1-0.3 0h-0.2s-0.1 0-0.1 0.1-0.1 0.2-0.1 0.3c0 0.2 0.2 0.2 0.5 0.2 0.2 0 0.3 0 0.5-0.1l0.3-0.3c0.1-0.1 0.1-0.3 0.1-0.5v-2.2-0.5c0-0.2 0-0.3-0.1-0.4-0.1-0.1-0.1-0.1-0.3-0.1h-1.4v-0.8c0-0.1 0-0.1 0.1-0.2 0-0.1 0.1-0.1 0.3-0.1h2c0 0.3 0.1 0.6 0.1 0.8 0 0.2 0.1 0.5 0.1 0.9 0.1 0.4 0.1 0.8 0.2 1.1 0.1 0.3 0.1 0.6 0.2 0.9 0.1 0.3 0.1 0.5 0.2 0.8-0.1 0.2-0.4 0.5-0.7 0.9-0.4 0.4-0.8 0.6-1.3 0.9l-0.5 0.2c-0.2 0.1-0.3 0.2-0.3 0.3 0 0.1 0 0.2 0.1 0.2s0.1 0.1 0.2 0.1 0.4-0.1 0.9-0.3 0.9-0.5 1.2-0.8l0.8-0.8 0.1 0.2s0.1 0.2 0.2 0.5 0.2 0.5 0.3 0.6c0.1 0.1 0.2 0.2 0.3 0.4 0.2 0.2 0.3 0.2 0.5 0.2s0.3-0.2 0.4-0.4c0.1-0.3 0.1-0.4 0.1-0.6v-0.7-0.6c0-0.1 0-0.2-0.1-0.3s-0.1-0.1-0.2-0.1-0.2 0-0.2 0.1c-0.1 0.1-0.1 0.2-0.1 0.3V551.9s-0.1 0-0.2-0.2c-0.1-0.1-0.1-0.3-0.2-0.4-0.1-0.1-0.1-0.3-0.2-0.5s-0.1-0.3-0.2-0.4c0-0.1-0.1-0.2-0.1-0.2 0.1-0.3 0.2-0.5 0.3-0.7 0.1-0.2 0.1-0.4 0.2-0.6 0.1-0.2 0.1-0.5 0.2-0.8s0.1-0.5 0.1-0.7v-0.4c0-0.1 0-0.2-0.1-0.3 0-0.1-0.1-0.1-0.2-0.1s-0.2 0-0.2 0.1-0.1 0.1-0.1 0.2v0.5c0 0.1 0 0.3-0.1 0.5 0 0.2-0.1 0.4-0.1 0.6 0 0.1-0.1 0.3-0.1 0.4-0.1 0.1-0.1 0.3-0.2 0.5 0-0.1-0.1-0.3-0.1-0.4 0-0.1-0.1-0.3-0.1-0.5s-0.1-0.4-0.1-0.7l-0.1-0.7c-0.1-0.6-0.1-1-0.1-1.1v-0.3h1.9c0.1 0 0.1 0 0.2-0.1 0-0.1 0.1-0.1 0.1-0.2s0-0.1-0.1-0.2l-0.1-0.1h-1.9v-0.4-0.5c0-0.1 0-0.2-0.1-0.2 0-0.1-0.1-0.1-0.2-0.1s-0.2 0-0.2 0.1-0.1 0.2 0 0.3v0.8h-2.1c-0.3 0-0.5 0.1-0.6 0.3s-0.1 0.3-0.1 0.4l0.1 3.3v0.8c-0.4 0.4-0.4 0.7-0.6 1zM417.7 547h0.8l0.1 3.8-0.2 0.2s-0.1 0.1-0.3 0.2-0.3 0.2-0.3 0.3-0.1 0.1-0.1 0.1v0.1c0 0.1 0 0.2 0.1 0.3 0.1 0.1 0.1 0.1 0.2 0.1s0.3-0.1 0.6-0.4c0.3-0.2 0.6-0.5 0.9-0.8 0.3-0.3 0.5-0.6 0.6-0.8 0.1-0.2 0.2-0.3 0.2-0.3 0-0.1 0-0.2-0.1-0.3s-0.2-0.1-0.2 0c-0.1 0.1-0.3 0.3-0.6 0.8l-0.1-3.2h0.7s0.1 0 0.1-0.1c0.1 0 0.1-0.1 0.1-0.2s0-0.2-0.1-0.2c0 0-0.1-0.1-0.2-0.1h-0.7v-2c0-0.1 0-0.1-0.1-0.2 0 0-0.1-0.1-0.2-0.1s-0.1 0-0.2 0.1c-0.1 0-0.1 0.1-0.1 0.2v2h-0.8c-0.2 0-0.3 0.1-0.3 0.2s0 0.2 0.1 0.2l0.1 0.1zM476 628.1h3.5l-0.1-0.2-0.7-2.9c-0.3-1.4-2.5-2.5-4.8-2.5h-11.1c0.4-0.1 0.7-0.2 1.1-0.3 2.1-0.6 3.9-1.2 5.2-1.8 0.6-0.3 2.5-1.2 1.6-2.1-0.3-0.3-1-0.6-2.5-0.6-1.8 0-4.5 0.4-7.4 1.2-2 0.5-3.9 1.2-5.2 1.8-0.4 0.2-1.4 0.6-1.9 1.2-0.5-0.5-1.4-1-1.9-1.2-1.3-0.6-3.2-1.2-5.2-1.8-2.9-0.8-5.6-1.2-7.4-1.2-1.5 0-2.2 0.3-2.5 0.6-0.9 0.9 0.9 1.8 1.6 2.1 1.3 0.6 3.1 1.3 5.2 1.8 0.4 0.1 0.7 0.2 1.1 0.3h-11.4c-2.3 0-4.4 1.1-4.8 2.5l-0.7 2.9-0.1 0.2h3.5l-4.5 20.7c-0.5 2.2 1.6 4 4.6 4H476c3 0 5-1.8 4.6-4l-4.6-20.7z m-18.3-6.7c1.1-0.5 2.6-1 4.2-1.4 2.7-0.7 4.7-1 5.9-1.1l-1 0.5c-1.1 0.5-2.5 1-4.1 1.4-2.7 0.7-4.9 1.1-6.1 1.1 0.2-0.1 0.6-0.3 1.1-0.5z m-17.2-2c-0.5-0.2-0.8-0.4-1-0.5 1.2 0.1 3.3 0.4 5.9 1.1 1.6 0.4 3.1 0.9 4.2 1.4 0.5 0.2 0.9 0.4 1.1 0.5-1.2-0.1-3.4-0.4-6.1-1.1-1.5-0.4-3-0.9-4.1-1.4z m-7.6 4.6h41.4c0.9 0 1.7 0.4 1.8 0.9l0.4 1.7h-45.7l0.4-1.7c0-0.5 0.8-0.9 1.7-0.9z m42.6 26.2h-43.9c-1.1 0-1.9-0.7-1.7-1.5l4-20.7h39.4l4 20.7c0.1 0.8-0.7 1.5-1.8 1.5zM461.2 631.5c0.7-0.5 1.3-1 1.8-1.5l-1.6-0.6c-0.7 0.7-1.5 1.4-2.3 2.1h-3.4l1.2-0.6c-0.8-0.6-1.5-1.1-2.2-1.5l-1.3 0.6c0.6 0.4 1.2 0.9 1.9 1.5h-3.7l-0.1 6.5h1.7v-0.6H464l0.1 0.6h1.7l-0.7-6.5h-3.9z m-8 4.8v-3.8h4.3l0.1 3.8h-4.4z m6.2 0l-0.2-3.8h4.3l0.4 3.8h-4.5zM445.6 641.8c0.4-1.2 0.7-2.3 0.8-3.5l0.4-5.6h-1.7l-0.5 5.7c-0.2 3.1-2 5.6-5.2 7.3 0.5 0.4 0.9 0.8 1.4 1.2 2.1-1.2 3.7-2.8 4.7-4.7 1.6 1.2 3 2.5 4.3 3.8l1.8-1.1c-1.4-1.2-3-2.4-4.8-3.8l-1.2 0.7zM459.9 635.2l1.5 0.5c0.6-0.7 1.1-1.4 1.5-2.2l-1.4-0.5c-0.5 0.8-1 1.6-1.6 2.2zM452.5 638.8l-0.1 8.3h2v-1h9.1l0.1 1h2l-0.8-8.3h-12.3z m1.9 1.2h8.6l0.1 1.8h-8.8l0.1-1.8z m0 4.8v-1.9h8.9l0.2 1.9h-9.1zM443.7 631.2h4.7l-0.5 9.7h1.8l0.4-10.7h-7.9L441 641h1.8zM453.8 633.5c0.6 0.7 1.2 1.4 1.7 2.2l1.5-0.5c-0.5-0.7-1.1-1.4-1.9-2.2l-1.3 0.5zM226.3 671l-2-1.4c-0.1 0.3-0.3 0.5-0.6 0.7-0.9 0.6-2.5 0.5-3.4-0.2-0.9-0.7-0.9-1.6 0-2.2 0.3-0.2 0.6-0.3 1-0.4l-1.7-1.2-2.5-1.6-1.5-1c-0.1 0.2-0.3 0.4-0.5 0.6-0.8 0.5-2 0.5-2.8 0-0.7-0.5-0.6-1.3 0.2-1.8 0.3-0.2 0.6-0.3 0.9-0.3l-1.3-0.9-1.9-1.3-1.2-0.8c-0.1 0.2-0.3 0.4-0.5 0.5-0.7 0.5-1.7 0.5-2.3 0.1-0.5-0.4-0.4-1.1 0.3-1.5 0.2-0.1 0.5-0.3 0.7-0.3l-1.1-0.7c-2.6-1.4-6.6-1-9.5 0.9l-15.4 10.1c-2.9 1.9-4.6 5.2-4 7.8l0.4 1.1c0.1-0.2 0.3-0.4 0.6-0.5 0.7-0.4 1.4-0.3 1.7 0.3 0.2 0.6-0.1 1.5-0.8 1.9-0.2 0.2-0.5 0.2-0.7 0.3l0.4 1.3 0.7 2 0.5 1.4c0.2-0.2 0.4-0.5 0.6-0.6 0.8-0.5 1.6-0.3 1.9 0.4 0.3 0.8-0.1 1.8-0.9 2.4-0.3 0.2-0.5 0.3-0.8 0.3l0.6 1.6 0.9 2.6 0.7 1.9c0.2-0.3 0.4-0.6 0.7-0.8 0.9-0.6 1.9-0.3 2.3 0.7 0.4 1 0 2.4-0.9 3-0.3 0.2-0.6 0.3-0.9 0.3l0.8 2.2c2.5 5.5 8.6 7.9 13.8 4.5l27.9-18.2c5.2-3.3 4.6-9.4-0.4-13.2z m-1.8 11.4l-12.5 8.2-1.7-2-1.9 1.2 1.6 2.1-12.5 8.2c-4 2.6-8.7 0.9-10.8-3.2 1.3-1.4 1.7-3.6 1-5.3-0.7-1.6-2.3-2.3-3.8-1.8l-1-2.6c1.1-1.2 1.6-2.9 1-4.2-0.5-1.2-1.8-1.7-3.1-1.2l-0.8-2c1-1 1.5-2.4 1-3.4-0.4-1-1.5-1.2-2.6-0.8-0.5-2.1 0.9-4.7 3.2-6.2l7.3-4.8 0.6 0.7 1.1-0.7-0.6-0.7 7.3-4.8c2.3-1.5 5.5-1.8 7.5-0.7-0.8 0.8-0.9 1.9 0 2.5 0.9 0.7 2.5 0.8 3.9 0.2l1.8 1.3c-0.9 1-0.9 2.2 0.2 3.1 1.2 0.9 3.1 1.1 4.7 0.5l2.4 1.7c-1 1.1-0.8 2.7 0.7 3.8 1.5 1.2 4 1.5 5.9 0.9 3.8 2.8 4 7.4 0.1 10zM192.5 666.8l-0.9-1.3-1.2 0.8 0.9 1.2zM204.2 684.2l2 2.7 1.8-1.2-2.1-2.6zM204.7 672.6l-1.7-1.7c1.3-0.4 2.5-0.8 3.6-1.3l-0.8-0.9c-1.1 0.5-2.4 1-3.7 1.4l-1.6-1.6 1.1 0.3c0.4-0.6 0.8-1.6 1-2.3l-1-0.3c-0.2 0.8-0.7 1.7-1.1 2.3l-1.8-1.9-0.9 0.6 3 3.2c-0.8 0.2-1.7 0.3-2.6 0.3l-2.7-3.1-0.9 0.6 2.1 2.6c-1.7-0.1-3.4-0.4-5-1.1-0.1 0.3-0.3 0.7-0.5 1 0.7 0.3 1.6 0.6 2.4 0.8l-0.6 0.4 1.5 2c-2.3 1-4.3 1.2-6.5-0.8-0.1 0.3-0.4 0.8-0.6 1 2.6 2.2 5 2 7.8 0.7l2.7 3.7c-3 1.7-4.3 2.2-4.8 2.1-0.3 0-0.4-0.2-0.6-0.5-0.2-0.3-0.7-1.1-1.1-2-0.2 0.4-0.6 0.8-0.9 1 0.4 0.9 0.9 1.8 1.2 2.2 0.3 0.5 0.6 0.7 1.1 0.8 0.8 0.1 2.4-0.6 6.3-2.8h0.1c0 1.2 0.2 2.6 0.6 3.9 0.5-0.1 1.2 0 1.7 0.1-1-2.4-1.2-5-0.6-7.1l3.5 4.2 1.2-0.8-6.8-7.8c0.9-0.1 1.7-0.2 2.6-0.4l5.2 5.6 1.1-0.7-2.5-2.6c1.2 0 2.5-0.1 3.8-0.2l-0.6-1.2c-0.7 0.1-2.5 0.3-3.7 0.3z m-4.4 2.2c-0.4 1-0.7 2.2-0.7 3.3l-5.2-6.7c1.1 0.2 2.2 0.3 3.3 0.3l2.6 3.1zM377.3 706l-21.6-9.2c-2.2-0.9-5.1-0.1-6.5 1.9L335 719c-1.9 2.8-1.4 6 1.3 7.2l26.6 11.3c4.2 1.8 9.3-0.8 11.2-5.5l6.9-17c1.3-3.6-0.3-7.5-3.7-9z m-40.2 14l13.9-20.4c0.3-0.4 0.6-0.7 1.1-0.9 1.4 1.6 2.3 3.6 2.5 5.9 0.2 2.6-0.5 5.3-2.1 7.9-1.7 2.7-4.1 5.1-7.2 6.7-2.8 1.5-5.8 2.4-8.8 2.5 0.1-0.6 0.3-1.2 0.6-1.7z m41.8-5.8l-7.2 16.9c-0.7 1.5-1.8 2.8-3.3 3.5-1.5 0.7-3.1 0.8-4.5 0.2L338.4 724c2.7-0.4 5.4-1.4 7.9-2.8 3.6-2 6.4-4.8 8.3-7.9 1.8-3 2.6-6.2 2.3-9.2-0.2-2-0.8-3.8-1.9-5.4l21.5 9.1c1.2 0.5 2.1 1.4 2.6 2.6 0.4 1.2 0.3 2.6-0.2 3.8zM371.1 711.8l-2-0.8-2.9 5.9-2.5-1 3.1-6-2-0.8-2.4 4.4-1.7-5.5-2.2 0.7 2.1 7.2-8.2 3.1 0.6 2.3 6.7-2.7-2.8 5.1 2.2 0.9 3.4-6.6 2.6 1.1-3.4 6.7 2.2 0.9 3.3-6.8 4.5 2 1-2.2-4.5-1.9z" /></svg>